<?xml version="1.0" encoding="UTF-8" standalone="no"?>
<svg
   xmlns:dc="http://purl.org/dc/elements/1.1/"
   xmlns:cc="http://creativecommons.org/ns#"
   xmlns:rdf="http://www.w3.org/1999/02/22-rdf-syntax-ns#"
   xmlns:svg="http://www.w3.org/2000/svg"
   xmlns="http://www.w3.org/2000/svg"
   xmlns:sodipodi="http://sodipodi.sourceforge.net/DTD/sodipodi-0.dtd"
   xmlns:inkscape="http://www.inkscape.org/namespaces/inkscape"
   id="svg1"
   height="100.15253"
   width="92.313553"
   version="1.1"
   inkscape:version="0.48.3.1 r9886"
   sodipodi:docname="nicubunu_Abstract_person.svg">
  <defs
     id="defs3059" />
  <sodipodi:namedview
     pagecolor="#ffffff"
     bordercolor="#666666"
     borderopacity="1"
     objecttolerance="10"
     gridtolerance="10"
     guidetolerance="10"
     inkscape:pageopacity="0"
     inkscape:pageshadow="2"
     inkscape:window-width="1231"
     inkscape:window-height="1000"
     id="namedview3057"
     showgrid="false"
     inkscape:zoom="4.72"
     inkscape:cx="39.37156"
     inkscape:cy="39.91416"
     inkscape:window-x="49"
     inkscape:window-y="24"
     inkscape:window-maximized="1"
     inkscape:current-layer="svg1"
     fit-margin-top="0"
     fit-margin-left="0"
     fit-margin-right="0"
     fit-margin-bottom="0" />
  <g
     id="g862"
     style="fill-rule:evenodd"
     transform="translate(-7.3389831,0.0762713)">
    <path
       id="path861"
       d="m 55.906,12.094 c -10.238,0 -18.531,6.648 -18.531,14.844 0,5.592 3.914,10.405 9.625,12.937 -7.566,1.456 -14.409,3.966 -18.469,7.813 -8.63,11.454 -5.437,20.463 -5.593,22.093 0.772,0.866 5.705,4.192 9.374,3.938 -0.371,-7.486 1.782,-17.969 1.782,-17.969 -0.47,0.376 -2.171,14.506 -1.625,18 -0.05,0.005 -0.107,-0.035 -0.157,-0.031 0.002,0.039 -0.002,0.086 0,0.125 0.4,6.49 3.653,21.402 5.063,22.656 13.819,1.983 27.023,1.715 41.469,0.312 0,0 0.402,-3.805 0.5,-4.718 C 80.55,88.028 81.766,81.958 80.812,77.625 80.905,76.716 80.907,76.771 81,75.844 80.211,64.801 78.118,57.305 78.188,57.469 79.824,62.272 81,75.844 81,75.844 85.782,75.029 89.156,74.195 93.938,71.5 95.504,69.87 96.279,60.57 89.188,47.906 86.207,42.583 77.244,39.625 66.969,38.781 c 4.518,-2.708 7.5,-6.98 7.5,-11.843 0,-0.054 -0.031,-0.103 -0.031,-0.157 0.117,-0.57 0.345,-1.337 0.406,-1.719 -0.257,-0.168 -0.397,-0.138 -0.625,-0.25 C 72.924,17.627 65.238,12.094 55.906,12.094 z"
       inkscape:connector-curvature="0"
       style="fill-opacity:0.5;stroke-width:1pt" />
    <g
       id="g836">
      <path
         id="path828"
         d="m 18.815,66.311 c 0.157,-1.63 -3.046,-10.639 5.584,-22.094 13.016,-12.332 53.567,-12.473 60.659,0.191 7.091,12.664 6.319,21.993 4.753,23.623 -4.782,2.696 -8.154,3.51 -12.936,4.325 0,0 -1.177,-13.555 -2.814,-18.359 -0.07,-0.164 2.026,7.321 2.814,18.363 C 75.784,83.277 74.693,93.317 74.693,93.317 60.248,94.719 47.055,94.993 33.236,93.01 31.826,91.756 28.57,76.85 28.17,70.36 c -0.4,-7.493 1.793,-18.092 1.793,-18.092 -0.47,0.376 -2.182,14.498 -1.636,17.992 -3.685,0.358 -8.728,-3.071 -9.512,-3.949 z"
         inkscape:connector-curvature="0"
         style="fill:#0000cc;stroke:#000000;stroke-width:1.25;stroke-linejoin:round" />
      <path
         id="path827"
         d="m 70.329,23.447 c 0,8.195 -8.308,14.847 -18.546,14.847 -10.238,0 -18.547,-6.652 -18.547,-14.847 0,-8.196 8.309,-14.848 18.547,-14.848 10.238,2e-4 18.546,6.652 18.546,14.848 z"
         inkscape:connector-curvature="0"
         style="fill:#0000cc;stroke:#000000;stroke-width:1.25;stroke-linejoin:round" />
      <path
         id="path830"
         d="M 51.512,9.7195 C 43.435,7.0272 24.41,21.0275 39.487,33.5915 48.64,31.7955 31.051,17.2575 51.512,9.7195 z"
         inkscape:connector-curvature="0"
         style="fill:#ffffff;fill-opacity:0.25" />
      <path
         id="path831"
         d="m 42.179,37.181 c -0.898,-0.18 -12.923,1.974 -17.231,7.897 -3.589,2.154 -7,12.384 -5.564,20.641 1.795,1.435 5.205,3.769 6.103,3.23 C 30.512,58.36 13.641,47.411 42.179,37.181 z"
         inkscape:connector-curvature="0"
         style="fill:#ffffff;fill-opacity:0.25" />
      <path
         id="path832"
         d="m 30.153,55.129 c -3.589,10.949 -0.179,30.512 3.769,36.974 3.949,1.256 9.513,1.795 10.77,1.436 1.076,-9.154 -14.898,-7.898 -14.539,-38.41 z"
         inkscape:connector-curvature="0"
         style="fill:#ffffff;fill-opacity:0.25" />
      <path
         id="path833"
         d="M 52.589,37.54 C 67.845,33.411 63.896,17.078 70.717,21.565 70.178,24.976 68.024,37.001 52.589,37.54 z"
         inkscape:connector-curvature="0"
         style="fill-opacity:0.25" />
      <path
         id="path834"
         d="m 81.306,70.565 c 0,0 8.257,-1.616 8.616,-3.231 C 91.896,61.052 86.511,46.155 83.999,43.642 71.794,39.334 97.28,68.59 81.306,70.565 z"
         inkscape:connector-curvature="0"
         style="fill-opacity:0.25" />
      <path
         id="path835"
         d="m 64.973,93.539 c 0,0 7.898,0.538 8.795,-0.898 0.897,-1.436 5.026,-14 2.513,-20.102 -8.257,-6.82 3.051,20.82 -11.308,21 z"
         inkscape:connector-curvature="0"
         style="fill-opacity:0.25" />
    </g>
  </g>
  <metadata
     id="metadata3055">
    <rdf:RDF>
      <cc:Work>
        <dc:format>image/svg+xml</dc:format>
        <dc:type
           rdf:resource="http://purl.org/dc/dcmitype/StillImage" />
        <cc:license
           rdf:resource="http://creativecommons.org/licenses/publicdomain/" />
        <dc:publisher>
          <cc:Agent
             rdf:about="http://openclipart.org/">
            <dc:title>Openclipart</dc:title>
          </cc:Agent>
        </dc:publisher>
        <dc:title />
      </cc:Work>
      <cc:License
         rdf:about="http://creativecommons.org/licenses/publicdomain/">
        <cc:permits
           rdf:resource="http://creativecommons.org/ns#Reproduction" />
        <cc:permits
           rdf:resource="http://creativecommons.org/ns#Distribution" />
        <cc:permits
           rdf:resource="http://creativecommons.org/ns#DerivativeWorks" />
      </cc:License>
    </rdf:RDF>
  </metadata>
  <metadata
     id="metadata3061">
    <rdf:RDF>
      <cc:Work
         rdf:about="">
        <dc:title>Clipart by Nicu Buculei - head1</dc:title>
        <dc:rights>
          <cc:Agent>
            <dc:title>Nicu Buculei</dc:title>
          </cc:Agent>
        </dc:rights>
        <dc:type
           rdf:resource="http://purl.org/dc/dcmitype/StillImage" />
        <cc:license
           rdf:resource="http://web.resource.org/cc/PublicDomain" />
      </cc:Work>
      <cc:License
         rdf:about="http://web.resource.org/cc/PublicDomain">
        <cc:permits
           rdf:resource="http://web.resource.org/cc/Reproduction" />
        <cc:permits
           rdf:resource="http://web.resource.org/cc/Distribution" />
        <cc:permits
           rdf:resource="http://web.resource.org/cc/DerivativeWorks" />
      </cc:License>
    </rdf:RDF>
  </metadata>
  <rect
     style="fill:none;stroke:#fdca01;stroke-width:1;stroke-linejoin:round;stroke-miterlimit:4;stroke-opacity:1;stroke-dasharray:none"
     id="rect3065"
     width="91.313553"
     height="99.152527"
     x="0.5"
     y="0.5"
     ry="4.6610169" />
</svg>
