<?xml version="1.0" encoding="UTF-8" standalone="no"?>
<svg
   xmlns:dc="http://purl.org/dc/elements/1.1/"
   xmlns:cc="http://creativecommons.org/ns#"
   xmlns:rdf="http://www.w3.org/1999/02/22-rdf-syntax-ns#"
   xmlns:svg="http://www.w3.org/2000/svg"
   xmlns="http://www.w3.org/2000/svg"
   xmlns:sodipodi="http://sodipodi.sourceforge.net/DTD/sodipodi-0.dtd"
   xmlns:inkscape="http://www.inkscape.org/namespaces/inkscape"
   id="svg1"
   height="91.621178"
   width="101.60902"
   version="1.1"
   inkscape:version="0.48.3.1 r9886"
   sodipodi:docname="nicubunu_Abstract_people.svg">
  <defs
     id="defs3105" />
  <sodipodi:namedview
     pagecolor="#ffffff"
     bordercolor="#666666"
     borderopacity="1"
     objecttolerance="10"
     gridtolerance="10"
     guidetolerance="10"
     inkscape:pageopacity="0"
     inkscape:pageshadow="2"
     inkscape:window-width="1231"
     inkscape:window-height="1000"
     id="namedview3103"
     showgrid="false"
     inkscape:zoom="8.21"
     inkscape:cx="50.743605"
     inkscape:cy="45.140666"
     inkscape:window-x="49"
     inkscape:window-y="24"
     inkscape:window-maximized="1"
     inkscape:current-layer="svg1"
     fit-margin-top="0"
     fit-margin-left="0"
     fit-margin-right="0"
     fit-margin-bottom="0" />
  <path
     id="path1082"
     d="m 40.118605,14.605512 c -5.628,0 -10.187,3.772 -10.187,8.406 0,3.182 2.235,5.857 5.406,7.281 -1.708,0.332 -3.293,0.784 -4.782,1.344 -1.716,-1.08 -3.768,-1.843 -6.093,-1.844 -5.628,0 -10.188,3.772 -10.188,8.407 0,3.188 2.224,5.891 5.407,7.312 -4.208,0.818 -8.029,2.242 -10.2819996,4.438 -4.7441,6.477 -2.9761,11.578 -3.0622,12.5 0.4264,0.491 3.1364,2.379 5.1561996,2.219 -0.053,-1.084 0.131,-2.228 0.219,-3.407 0.068,-1.111 0.032,-1.68 0.156,-2.812 0.286,-2.216 0.594,-3.938 0.594,-3.938 -0.116,0.095 -0.377,1.968 -0.594,3.938 -0.113,0.878 -0.084,1.84 -0.156,2.812 -0.079,1.282 -0.245,2.821 -0.157,3.407 -0.019,10e-4 -0.042,-0.002 -0.062,0 10e-4,0.019 -0.001,0.042 0,0.062 0.22,3.67 2.006,12.103 2.781,12.812 6.568,0.97 12.936,0.87 19.657,0.344 1.053,-0.082 2.049,-0.049 3.124,-0.156 0,0 0.238,-2.47 0.313,-3.188 0.644,-2.21 1.171,-4.85 0.75,-7.312 0.068,-0.693 0.056,-0.661 0.125,-1.375 -0.084,-1.212 -0.219,-1.894 -0.344,-2.937 0.011,0 0.02,0.03 0.032,0.031 0.141,1.335 0.312,2.906 0.312,2.906 2.629,-0.461 4.496,-0.913 7.125,-2.437 0.073,-0.078 0.092,-0.362 0.156,-0.5 1.135,-0.05 2.284,-0.103 3.438,-0.188 0.34,1.239 0.739,2.915 0.969,3.125 5.723,0.845 11.319,0.831 17.093,0.5 0.605,2.931 1.268,5.522 1.688,5.906 6.492,0.959 12.803,0.883 19.437,0.375 0.286,-10e-4 0.428,-0.016 0.719,-0.031 0.89,-0.073 1.718,-0.066 2.625,-0.156 0,0 0.241,-2.412 0.312,-3.094 0.641,-2.175 1.137,-4.8 0.75,-7.281 0.074,-0.741 0.082,-0.703 0.157,-1.469 -0.174,-2.503 -0.5,-4.355 -0.781,-6.063 -0.236,-1.618 -0.468,-3.395 -0.782,-4.343 -0.023,-0.056 0.36,1.791 0.782,4.343 0.439,3.017 0.781,6.063 0.781,6.063 2.628,-0.461 4.465,-0.944 7.093,-2.469 0.862005,-0.922 1.308005,-6.182 -2.593,-13.344 -1.662,-3.053 -6.718,-4.708 -12.469,-5.156 2.572,-1.524 4.375,-3.88 4.375,-6.687 v -0.063 c 0.068,-0.335 0.185,-0.777 0.219,-1 -0.209,-0.141 -0.357,-0.116 -0.532,-0.187 -0.758,-4.019 -4.814,-7.157 -9.906,-7.157 -4.221,0 -7.826,2.112 -9.375,5.126 0.48,-0.974 0.781,-2.042 0.781,-3.157 0,-0.021 0.001,-0.041 0,-0.062 0.067,-0.33 0.185,-0.78 0.219,-1 -0.213,-0.145 -0.353,-0.116 -0.531,-0.188 -0.765,-4.013 -4.788,-7.125 -9.875,-7.125 -5.628,0 -10.187,3.741 -10.187,8.375 0,1.511 0.588,2.869 1.437,4.094 -1.664,-0.443 -3.475,-0.724 -5.406,-0.875 2.213,-1.31 3.7,-3.269 4.093,-5.594 0.147,-0.47 0.173,-0.746 0.25,-1.125 0,-0.01 10e-4,-0.021 0,-0.031 0.071,-0.344 0.184,-0.804 0.219,-1.031 -0.213,-0.145 -0.353,-0.116 -0.531,-0.188 -0.76,-4.017 -4.784,-7.156 -9.875,-7.156 z m 29.375,15.187 c -0.48,0.974 -0.781,2.042 -0.781,3.157 0,0.212 0.137,0.385 0.156,0.593 -0.942,-0.156 -1.905,-0.265 -2.906,-0.343 1.501,-0.895 2.8,-1.984 3.531,-3.407 z"
     inkscape:connector-curvature="0"
     style="fill-opacity:0.5;fill-rule:evenodd" />
  <g
     id="g984"
     transform="translate(0.74360536,-6.0194883)"
     style="fill-rule:evenodd">
    <path
       id="path884"
       d="m 18.815,66.311 c 0.157,-1.63 -3.046,-10.639 5.584,-22.094 13.016,-12.332 53.567,-12.473 60.659,0.191 7.091,12.664 6.319,21.993 4.753,23.623 -4.782,2.696 -8.154,3.51 -12.936,4.325 0,0 -1.177,-13.555 -2.814,-18.359 -0.07,-0.164 2.026,7.321 2.814,18.363 C 75.784,83.277 74.693,93.317 74.693,93.317 60.248,94.719 47.055,94.993 33.236,93.01 31.826,91.756 28.57,76.85 28.17,70.36 c -0.4,-7.493 1.793,-18.092 1.793,-18.092 -0.47,0.376 -2.182,14.498 -1.636,17.992 -3.685,0.358 -8.728,-3.071 -9.512,-3.949 z"
       transform="matrix(0.54975,0,0,0.5655,27.396,15.905)"
       inkscape:connector-curvature="0"
       style="fill:#ff8a00;stroke:#000000;stroke-width:2.24189997;stroke-linejoin:round" />
    <path
       id="path885"
       d="m 70.329,23.447 c 0,8.195 -8.308,14.847 -18.546,14.847 -10.238,0 -18.547,-6.652 -18.547,-14.847 0,-8.196 8.309,-14.848 18.547,-14.848 10.238,2e-4 18.546,6.652 18.546,14.848 z"
       transform="matrix(0.54975,0,0,0.5655,27.396,15.905)"
       inkscape:connector-curvature="0"
       style="fill:#ff8a00;stroke:#000000;stroke-width:2.24189997;stroke-linejoin:round" />
    <path
       id="path886"
       d="M 51.512,9.7195 C 43.435,7.0272 24.41,21.0275 39.487,33.5915 48.64,31.7955 31.051,17.2575 51.512,9.7195 z"
       transform="matrix(0.54975,0,0,0.5655,27.396,15.905)"
       inkscape:connector-curvature="0"
       style="fill:#ffffff;fill-opacity:0.25;stroke-width:1pt" />
    <path
       id="path887"
       d="m 42.179,37.181 c -0.898,-0.18 -12.923,1.974 -17.231,7.897 -3.589,2.154 -7,12.384 -5.564,20.641 1.795,1.435 5.205,3.769 6.103,3.23 C 30.512,58.36 13.641,47.411 42.179,37.181 z"
       transform="matrix(0.54975,0,0,0.5655,27.396,15.905)"
       inkscape:connector-curvature="0"
       style="fill:#ffffff;fill-opacity:0.25;stroke-width:1pt" />
    <path
       id="path888"
       d="m 30.153,55.129 c -3.589,10.949 -0.179,30.512 3.769,36.974 3.949,1.256 9.513,1.795 10.77,1.436 1.076,-9.154 -14.898,-7.898 -14.539,-38.41 z"
       transform="matrix(0.54975,0,0,0.5655,27.396,15.905)"
       inkscape:connector-curvature="0"
       style="fill:#ffffff;fill-opacity:0.25;stroke-width:1pt" />
    <path
       id="path889"
       d="M 52.589,37.54 C 67.845,33.411 63.896,17.078 70.717,21.565 70.178,24.976 68.024,37.001 52.589,37.54 z"
       transform="matrix(0.54975,0,0,0.5655,27.396,15.905)"
       inkscape:connector-curvature="0"
       style="fill-opacity:0.25;stroke-width:1pt" />
    <path
       id="path890"
       d="m 81.306,70.565 c 0,0 8.257,-1.616 8.616,-3.231 C 91.896,61.052 86.511,46.155 83.999,43.642 71.794,39.334 97.28,68.59 81.306,70.565 z"
       transform="matrix(0.54975,0,0,0.5655,27.396,15.905)"
       inkscape:connector-curvature="0"
       style="fill-opacity:0.25;stroke-width:1pt" />
    <path
       id="path891"
       d="m 64.973,93.539 c 0,0 7.898,0.538 8.795,-0.898 0.897,-1.436 5.026,-14 2.513,-20.102 -8.257,-6.82 3.051,20.82 -11.308,21 z"
       transform="matrix(0.54975,0,0,0.5655,27.396,15.905)"
       inkscape:connector-curvature="0"
       style="fill-opacity:0.23999999;stroke-width:1pt" />
    <path
       id="path828"
       d="m 18.815,66.311 c 0.157,-1.63 -3.046,-10.639 5.584,-22.094 13.016,-12.332 53.567,-12.473 60.659,0.191 7.091,12.664 6.319,21.993 4.753,23.623 -4.782,2.696 -8.154,3.51 -12.936,4.325 0,0 -1.177,-13.555 -2.814,-18.359 -0.07,-0.164 2.026,7.321 2.814,18.363 C 75.784,83.277 74.693,93.317 74.693,93.317 60.248,94.719 47.055,94.993 33.236,93.01 31.826,91.756 28.57,76.85 28.17,70.36 c -0.4,-7.493 1.793,-18.092 1.793,-18.092 -0.47,0.376 -2.182,14.498 -1.636,17.992 -3.685,0.358 -8.728,-3.071 -9.512,-3.949 z"
       transform="matrix(0.54975,0,0,0.5655,46.197,22.325)"
       inkscape:connector-curvature="0"
       style="fill:#8400ff;stroke:#000000;stroke-width:2.24189997;stroke-linejoin:round" />
    <path
       id="path827"
       d="m 70.329,23.447 c 0,8.195 -8.308,14.847 -18.546,14.847 -10.238,0 -18.547,-6.652 -18.547,-14.847 0,-8.196 8.309,-14.848 18.547,-14.848 10.238,2e-4 18.546,6.652 18.546,14.848 z"
       transform="matrix(0.54975,0,0,0.5655,46.197,22.325)"
       inkscape:connector-curvature="0"
       style="fill:#8400ff;stroke:#000000;stroke-width:2.24189997;stroke-linejoin:round" />
    <path
       id="path830"
       d="M 51.512,9.7195 C 43.435,7.0272 24.41,21.0275 39.487,33.5915 48.64,31.7955 31.051,17.2575 51.512,9.7195 z"
       transform="matrix(0.54975,0,0,0.5655,46.197,22.325)"
       inkscape:connector-curvature="0"
       style="fill:#ffffff;fill-opacity:0.25;stroke-width:1pt" />
    <path
       id="path831"
       d="m 42.179,37.181 c -0.898,-0.18 -12.923,1.974 -17.231,7.897 -3.589,2.154 -7,12.384 -5.564,20.641 1.795,1.435 5.205,3.769 6.103,3.23 C 30.512,58.36 13.641,47.411 42.179,37.181 z"
       transform="matrix(0.54975,0,0,0.5655,46.197,22.325)"
       inkscape:connector-curvature="0"
       style="fill:#ffffff;fill-opacity:0.25;stroke-width:1pt" />
    <path
       id="path832"
       d="m 30.153,55.129 c -3.589,10.949 -0.179,30.512 3.769,36.974 3.949,1.256 9.513,1.795 10.77,1.436 1.076,-9.154 -14.898,-7.898 -14.539,-38.41 z"
       transform="matrix(0.54975,0,0,0.5655,46.197,22.325)"
       inkscape:connector-curvature="0"
       style="fill:#ffffff;fill-opacity:0.25;stroke-width:1pt" />
    <path
       id="path833"
       d="M 52.589,37.54 C 67.845,33.411 63.896,17.078 70.717,21.565 70.178,24.976 68.024,37.001 52.589,37.54 z"
       transform="matrix(0.54975,0,0,0.5655,46.197,22.325)"
       inkscape:connector-curvature="0"
       style="fill-opacity:0.25;stroke-width:1pt" />
    <path
       id="path834"
       d="m 81.306,70.565 c 0,0 8.257,-1.616 8.616,-3.231 C 91.896,61.052 86.511,46.155 83.999,43.642 71.794,39.334 97.28,68.59 81.306,70.565 z"
       transform="matrix(0.54975,0,0,0.5655,46.197,22.325)"
       inkscape:connector-curvature="0"
       style="fill-opacity:0.25;stroke-width:1pt" />
    <path
       id="path835"
       d="m 64.973,93.539 c 0,0 7.898,0.538 8.795,-0.898 0.897,-1.436 5.026,-14 2.513,-20.102 -8.257,-6.82 3.051,20.82 -11.308,21 z"
       transform="matrix(0.54975,0,0,0.5655,46.197,22.325)"
       inkscape:connector-curvature="0"
       style="fill-opacity:0.23999999;stroke-width:1pt" />
    <path
       id="path875"
       d="m 18.815,66.311 c 0.157,-1.63 -3.046,-10.639 5.584,-22.094 13.016,-12.332 53.567,-12.473 60.659,0.191 7.091,12.664 6.319,21.993 4.753,23.623 -4.782,2.696 -8.154,3.51 -12.936,4.325 0,0 -1.177,-13.555 -2.814,-18.359 -0.07,-0.164 2.026,7.321 2.814,18.363 C 75.784,83.277 74.693,93.317 74.693,93.317 60.248,94.719 47.055,94.993 33.236,93.01 31.826,91.756 28.57,76.85 28.17,70.36 c -0.4,-7.493 1.793,-18.092 1.793,-18.092 -0.47,0.376 -2.182,14.498 -1.636,17.992 -3.685,0.358 -8.728,-3.071 -9.512,-3.949 z"
       transform="matrix(0.54975,0,0,0.5655,7.4075,12.397)"
       inkscape:connector-curvature="0"
       style="fill:#008500;stroke:#000000;stroke-width:2.24189997;stroke-linejoin:round" />
    <path
       id="path876"
       d="m 70.329,23.447 c 0,8.195 -8.308,14.847 -18.546,14.847 -10.238,0 -18.547,-6.652 -18.547,-14.847 0,-8.196 8.309,-14.848 18.547,-14.848 10.238,2e-4 18.546,6.652 18.546,14.848 z"
       transform="matrix(0.54975,0,0,0.5655,7.4075,12.397)"
       inkscape:connector-curvature="0"
       style="fill:#008500;stroke:#000000;stroke-width:2.24189997;stroke-linejoin:round" />
    <path
       id="path877"
       d="M 51.512,9.7195 C 43.435,7.0272 24.41,21.0275 39.487,33.5915 48.64,31.7955 31.051,17.2575 51.512,9.7195 z"
       transform="matrix(0.54975,0,0,0.5655,7.4075,12.397)"
       inkscape:connector-curvature="0"
       style="fill:#ffffff;fill-opacity:0.25;stroke-width:1pt" />
    <path
       id="path878"
       d="m 42.179,37.181 c -0.898,-0.18 -12.923,1.974 -17.231,7.897 -3.589,2.154 -7,12.384 -5.564,20.641 1.795,1.435 5.205,3.769 6.103,3.23 C 30.512,58.36 13.641,47.411 42.179,37.181 z"
       transform="matrix(0.54975,0,0,0.5655,7.4075,12.397)"
       inkscape:connector-curvature="0"
       style="fill:#ffffff;fill-opacity:0.25;stroke-width:1pt" />
    <path
       id="path879"
       d="m 30.153,55.129 c -3.589,10.949 -0.179,30.512 3.769,36.974 3.949,1.256 9.513,1.795 10.77,1.436 1.076,-9.154 -14.898,-7.898 -14.539,-38.41 z"
       transform="matrix(0.54975,0,0,0.5655,7.4075,12.397)"
       inkscape:connector-curvature="0"
       style="fill:#ffffff;fill-opacity:0.25;stroke-width:1pt" />
    <path
       id="path880"
       d="M 52.589,37.54 C 67.845,33.411 63.896,17.078 70.717,21.565 70.178,24.976 68.024,37.001 52.589,37.54 z"
       transform="matrix(0.54975,0,0,0.5655,7.4075,12.397)"
       inkscape:connector-curvature="0"
       style="fill-opacity:0.25;stroke-width:1pt" />
    <path
       id="path881"
       d="m 81.306,70.565 c 0,0 8.257,-1.616 8.616,-3.231 C 91.896,61.052 86.511,46.155 83.999,43.642 71.794,39.334 97.28,68.59 81.306,70.565 z"
       transform="matrix(0.54975,0,0,0.5655,7.4075,12.397)"
       inkscape:connector-curvature="0"
       style="fill-opacity:0.25;stroke-width:1pt" />
    <path
       id="path882"
       d="m 64.973,93.539 c 0,0 7.898,0.538 8.795,-0.898 0.897,-1.436 5.026,-14 2.513,-20.102 -8.257,-6.82 3.051,20.82 -11.308,21 z"
       transform="matrix(0.54975,0,0,0.5655,7.4075,12.397)"
       inkscape:connector-curvature="0"
       style="fill-opacity:0.23999999;stroke-width:1pt" />
    <path
       id="path893"
       d="m 18.815,66.311 c 0.157,-1.63 -3.046,-10.639 5.584,-22.094 13.016,-12.332 53.567,-12.473 60.659,0.191 7.091,12.664 6.319,21.993 4.753,23.623 -4.782,2.696 -8.154,3.51 -12.936,4.325 0,0 -1.177,-13.555 -2.814,-18.359 -0.07,-0.164 2.026,7.321 2.814,18.363 C 75.784,83.277 74.693,93.317 74.693,93.317 60.248,94.719 47.055,94.993 33.236,93.01 31.826,91.756 28.57,76.85 28.17,70.36 c -0.4,-7.493 1.793,-18.092 1.793,-18.092 -0.47,0.376 -2.182,14.498 -1.636,17.992 -3.685,0.358 -8.728,-3.071 -9.512,-3.949 z"
       transform="matrix(0.54975,0,0,0.5655,-8.2553,27.591)"
       inkscape:connector-curvature="0"
       style="fill:#0000cc;stroke:#000000;stroke-width:2.24189997;stroke-linejoin:round" />
    <path
       id="path894"
       d="m 70.329,23.447 c 0,8.195 -8.308,14.847 -18.546,14.847 -10.238,0 -18.547,-6.652 -18.547,-14.847 0,-8.196 8.309,-14.848 18.547,-14.848 10.238,2e-4 18.546,6.652 18.546,14.848 z"
       transform="matrix(0.54975,0,0,0.5655,-8.2553,27.591)"
       inkscape:connector-curvature="0"
       style="fill:#0000cc;stroke:#000000;stroke-width:2.24189997;stroke-linejoin:round" />
    <path
       id="path895"
       d="M 51.512,9.7195 C 43.435,7.0272 24.41,21.0275 39.487,33.5915 48.64,31.7955 31.051,17.2575 51.512,9.7195 z"
       transform="matrix(0.54975,0,0,0.5655,-8.2553,27.591)"
       inkscape:connector-curvature="0"
       style="fill:#ffffff;fill-opacity:0.25;stroke-width:1pt" />
    <path
       id="path896"
       d="m 42.179,37.181 c -0.898,-0.18 -12.923,1.974 -17.231,7.897 -3.589,2.154 -7,12.384 -5.564,20.641 1.795,1.435 5.205,3.769 6.103,3.23 C 30.512,58.36 13.641,47.411 42.179,37.181 z"
       transform="matrix(0.54975,0,0,0.5655,-8.2553,27.591)"
       inkscape:connector-curvature="0"
       style="fill:#ffffff;fill-opacity:0.25;stroke-width:1pt" />
    <path
       id="path897"
       d="m 30.153,55.129 c -3.589,10.949 -0.179,30.512 3.769,36.974 3.949,1.256 9.513,1.795 10.77,1.436 1.076,-9.154 -14.898,-7.898 -14.539,-38.41 z"
       transform="matrix(0.54975,0,0,0.5655,-8.2553,27.591)"
       inkscape:connector-curvature="0"
       style="fill:#ffffff;fill-opacity:0.25;stroke-width:1pt" />
    <path
       id="path898"
       d="M 52.589,37.54 C 67.845,33.411 63.896,17.078 70.717,21.565 70.178,24.976 68.024,37.001 52.589,37.54 z"
       transform="matrix(0.54975,0,0,0.5655,-8.2553,27.591)"
       inkscape:connector-curvature="0"
       style="fill-opacity:0.25;stroke-width:1pt" />
    <path
       id="path899"
       d="m 81.306,70.565 c 0,0 8.257,-1.616 8.616,-3.231 C 91.896,61.052 86.511,46.155 83.999,43.642 71.794,39.334 97.28,68.59 81.306,70.565 z"
       transform="matrix(0.54975,0,0,0.5655,-8.2553,27.591)"
       inkscape:connector-curvature="0"
       style="fill-opacity:0.25;stroke-width:1pt" />
    <path
       id="path900"
       d="m 64.973,93.539 c 0,0 7.898,0.538 8.795,-0.898 0.897,-1.436 5.026,-14 2.513,-20.102 -8.257,-6.82 3.051,20.82 -11.308,21 z"
       transform="matrix(0.54975,0,0,0.5655,-8.2553,27.591)"
       inkscape:connector-curvature="0"
       style="fill-opacity:0.23999999;stroke-width:1pt" />
  </g>
  <metadata
     id="metadata3101">
    <rdf:RDF>
      <cc:Work>
        <dc:format>image/svg+xml</dc:format>
        <dc:type
           rdf:resource="http://purl.org/dc/dcmitype/StillImage" />
        <cc:license
           rdf:resource="http://creativecommons.org/licenses/publicdomain/" />
        <dc:publisher>
          <cc:Agent
             rdf:about="http://openclipart.org/">
            <dc:title>Openclipart</dc:title>
          </cc:Agent>
        </dc:publisher>
        <dc:title />
      </cc:Work>
      <cc:License
         rdf:about="http://creativecommons.org/licenses/publicdomain/">
        <cc:permits
           rdf:resource="http://creativecommons.org/ns#Reproduction" />
        <cc:permits
           rdf:resource="http://creativecommons.org/ns#Distribution" />
        <cc:permits
           rdf:resource="http://creativecommons.org/ns#DerivativeWorks" />
      </cc:License>
    </rdf:RDF>
  </metadata>
  <metadata
     id="metadata3107">
    <rdf:RDF>
      <cc:Work
         rdf:about="">
        <dc:title>Clipart by Nicu Buculei - head1</dc:title>
        <dc:rights>
          <cc:Agent>
            <dc:title>Nicu Buculei</dc:title>
          </cc:Agent>
        </dc:rights>
        <dc:type
           rdf:resource="http://purl.org/dc/dcmitype/StillImage" />
        <cc:license
           rdf:resource="http://web.resource.org/cc/PublicDomain" />
      </cc:Work>
      <cc:License
         rdf:about="http://web.resource.org/cc/PublicDomain">
        <cc:permits
           rdf:resource="http://web.resource.org/cc/Reproduction" />
        <cc:permits
           rdf:resource="http://web.resource.org/cc/Distribution" />
        <cc:permits
           rdf:resource="http://web.resource.org/cc/DerivativeWorks" />
      </cc:License>
    </rdf:RDF>
  </metadata>
  <rect
     style="fill:none;stroke:#fdca01;stroke-width:1;stroke-linejoin:round;stroke-miterlimit:4;stroke-opacity:1;stroke-dasharray:none"
     id="rect3109"
     width="100.60902"
     height="90.621178"
     x="0.5"
     y="0.5"
     ry="4.6610169" />
</svg>
